<svg width="236" height="236" viewBox="0 0 236 236" fill="none" xmlns="http://www.w3.org/2000/svg">
<path d="M94.9001 10.8C83.1001 16.7 57.7001 29.6 38.5001 39.2C19.2001 49 3.00006 57.4 2.40006 57.9C5.98431e-05 60.1 6.04216e-05 57.5 6.04216e-05 118.1C6.04216e-05 178.7 -0.0999401 176.1 2.40006 178.3C3.00006 178.9 28.7001 192 59.5001 207.6C113.3 234.7 115.6 235.9 118 235.9C120.4 235.9 122.7 234.8 176.5 207.6C207.3 192 233 178.9 233.6 178.3C236 176.1 236 178.7 236 118.1C236 57.5 236.1 60.1 233.6 57.9C233 57.3 207.3 44.2 176.5 28.7C133.2 6.90004 120 0.400034 118.4 0.200034C116.4 3.38908e-05 115.3 0.500033 94.9001 10.8ZM162 51.6C186.2 63.7 206 73.7 206 73.9C206 74.1 186.2 83.9 162 95.9L118 117.7L74.0001 95.9C49.8001 83.9 30.0001 74 30.0001 73.9C30.0001 73.7 117.3 29.8 117.9 29.7C118 29.6 137.8 39.5 162 51.6Z" fill="url(#paint0_linear_314_484)"/>
<defs>
<linearGradient id="paint0_linear_314_484" x1="118" y1="0.169678" x2="119" y2="144.5" gradientUnits="userSpaceOnUse">
<stop stop-color="#bada55"/>
<stop offset="1" stop-color="#bada55"/>
</linearGradient>
</defs>
</svg>
