<svg width="2683" height="268" viewBox="0 0 2683 268" fill="none" xmlns="http://www.w3.org/2000/svg">
<path d="M116.953 36.45C109.453 45.35 97.4526 52.35 85.4526 51.35C83.9526 39.35 89.8526 26.55 96.7526 18.75C104.253 9.65003 117.353 3.15002 128.053 2.65002C129.253 15.05 124.353 27.35 116.953 36.45ZM127.853 53.65C110.453 52.65 95.5526 63.55 87.3526 63.55C78.9526 63.55 66.3526 54.15 52.5526 54.45C34.6526 54.75 18.0526 64.85 8.95263 80.95C-9.84737 113.25 4.05263 160.95 22.2526 187.25C31.1526 200.25 41.7526 214.55 55.7526 214.05C69.0526 213.55 74.2526 205.45 90.2526 205.45C106.353 205.45 111.053 214.05 125.053 213.85C139.553 213.55 148.653 200.85 157.553 187.85C167.653 173.05 171.853 158.75 172.053 157.95C171.753 157.65 144.053 147.05 143.753 115.05C143.453 88.25 165.653 75.55 166.653 74.75C154.153 56.15 134.653 54.15 127.853 53.65ZM228.253 17.45V212.35H258.553V145.75H300.453C338.753 145.75 365.553 119.45 365.553 81.45C365.553 43.45 339.153 17.45 301.453 17.45H228.253ZM258.553 42.95H293.453C319.753 42.95 334.753 56.95 334.753 81.55C334.753 106.15 319.753 120.35 293.353 120.35H258.553V42.95ZM420.753 213.85C439.753 213.85 457.353 204.25 465.353 188.95H465.953V212.35H493.953V115.35C493.953 87.25 471.453 69.05 436.853 69.05C404.753 69.05 380.953 87.45 380.053 112.65H407.353C409.653 100.65 420.753 92.75 435.953 92.75C454.453 92.75 464.853 101.35 464.853 117.25V128.05L427.053 130.35C391.953 132.45 372.953 146.85 372.953 171.85C373.053 197.05 392.653 213.85 420.753 213.85ZM428.953 190.75C412.853 190.75 402.553 182.95 402.553 171.15C402.553 158.85 412.453 151.75 431.353 150.65L464.953 148.55V159.55C464.953 177.75 449.453 190.75 428.953 190.75ZM531.453 265.35C560.953 265.35 574.853 254.05 586.953 219.95L640.053 70.95H609.253L573.653 186.05H573.053L537.453 70.95H505.853L557.053 212.85L554.253 221.45C549.653 236.05 542.153 241.75 528.753 241.75C526.353 241.75 521.753 241.45 519.853 241.25V264.65C521.653 265.05 529.153 265.35 531.453 265.35Z" fill="black"/>
<path d="M1052.59 147.93H822.053V224.731H1052.59V147.93Z" fill="#84B740"/>
<path d="M1052.59 43.1324H822.053V120.002H1052.59V43.1324Z" fill="#259BD6"/>
<path d="M1283.13 209.124L1282.11 209.329C1278.55 210.014 1277.25 210.288 1274.65 210.288C1268.62 210.288 1261.5 207.207 1261.5 192.696C1261.5 185.235 1262.73 175.31 1273.96 175.31H1274.03C1275.95 175.446 1278.14 175.652 1282.24 176.884L1283.13 177.158V209.124ZM1284.98 136.772L1283.13 137.114V163.947L1281.49 163.468L1281.01 163.331C1279.16 162.783 1274.92 161.551 1270.81 161.551C1248.36 161.551 1243.64 178.527 1243.64 192.764C1243.64 212.273 1254.59 223.498 1273.69 223.498C1281.76 223.498 1287.72 222.677 1293.74 220.692C1299.29 218.912 1301.27 216.38 1301.27 210.972V133.966C1295.93 134.924 1290.39 135.882 1284.98 136.772Z" fill="#27292D"/>
<path d="M1349.87 209.603L1348.91 209.877L1345.49 210.767C1342.27 211.588 1339.4 212.067 1337.21 212.067C1331.94 212.067 1328.79 209.466 1328.79 205.017C1328.79 202.142 1330.09 197.282 1338.71 197.282H1349.87V209.603ZM1342 161.209C1335.09 161.209 1327.97 162.441 1319.14 165.179L1313.39 166.89L1315.3 179.896L1320.92 178.048C1326.8 176.131 1334.13 174.899 1339.6 174.899C1342.07 174.899 1349.6 174.899 1349.6 183.045V186.604H1339.13C1320.03 186.604 1311.2 192.696 1311.2 205.77C1311.2 216.927 1319.34 223.636 1333.03 223.636C1337.28 223.636 1343.16 222.814 1348.23 221.582L1348.5 221.514L1348.78 221.582L1350.49 221.856C1355.83 222.814 1361.37 223.772 1366.78 224.799V182.086C1366.78 168.259 1358.43 161.209 1342 161.209Z" fill="#27292D"/>
<path d="M1216.87 209.603L1215.91 209.877L1212.49 210.767C1209.28 211.588 1206.47 212.067 1204.21 212.067C1198.94 212.067 1195.79 209.466 1195.79 205.017C1195.79 202.142 1197.09 197.282 1205.65 197.282H1216.8V209.603H1216.87ZM1209.07 161.209C1202.09 161.209 1195.04 162.441 1186.21 165.179L1180.46 166.89L1182.37 179.896L1187.99 178.048C1193.87 176.131 1201.2 174.899 1206.67 174.899C1209.14 174.899 1216.67 174.899 1216.67 183.045V186.604H1206.19C1187.1 186.604 1178.2 192.696 1178.2 205.77C1178.2 216.927 1186.34 223.636 1200.1 223.636C1204.35 223.636 1210.23 222.814 1215.3 221.582L1215.57 221.514L1215.85 221.582L1217.49 221.856C1222.9 222.814 1228.37 223.772 1233.78 224.868V182.155C1233.85 168.191 1225.5 161.209 1209.07 161.209Z" fill="#27292D"/>
<path d="M1144.8 161.346C1136.1 161.346 1128.91 164.221 1126.25 165.453L1125.56 165.795L1124.94 165.316C1121.25 162.646 1115.84 161.277 1108.31 161.277C1101.67 161.277 1095.44 162.236 1088.67 164.221C1082.85 166.001 1080.59 168.807 1080.59 174.078V222.883H1098.8V177.774L1099.69 177.5C1103.38 176.268 1105.57 176.063 1107.7 176.063C1112.97 176.063 1115.64 178.869 1115.64 184.345V222.951H1133.57V183.592C1133.57 181.265 1133.09 179.896 1133.02 179.622L1132.41 178.458L1133.64 177.911C1136.38 176.679 1139.39 176.063 1142.54 176.063C1146.16 176.063 1150.48 177.5 1150.48 184.345V222.951H1168.34V182.565C1168.34 168.259 1160.68 161.346 1144.8 161.346Z" fill="#27292D"/>
<path d="M1336.46 93.238C1333.79 93.238 1329.34 92.9642 1325.85 92.2797L1324.82 92.0743V65.721C1324.82 63.5306 1324.41 62.1616 1324.34 61.9562L1323.79 60.861L1324.96 60.3819C1325.23 60.245 1325.5 60.1765 1325.85 60.0396L1326.05 59.9027C1326.46 59.7658 1326.87 59.6289 1327.28 59.492C1327.49 59.4236 1327.63 59.3551 1327.76 59.3551C1331.8 58.2599 1335.5 58.3968 1337.14 58.2599H1337.21C1348.37 58.2599 1349.67 68.1852 1349.67 75.6463C1349.6 90.1577 1342.41 93.238 1336.46 93.238ZM1336.39 43.1324C1336.25 43.1324 1336.04 43.1324 1335.91 43.1324C1325.44 43.1324 1314.69 46.0074 1310.86 51.6203C1308.8 54.3583 1307.64 57.7808 1307.57 61.8193V88.994C1307.57 91.3213 1307.09 92.2112 1307.02 92.4165L1306.41 93.5802H1273.34V74.688H1273.28C1272.87 54.769 1261.09 43.8169 1244.05 43.8169H1242.06H1227.41C1226.73 48.6769 1226.18 52.0994 1225.5 56.9594H1242.06C1250.76 56.9594 1255.34 64.352 1255.34 75.7147V94.7439L1254.18 94.1278C1253.97 94.0594 1252.54 93.5802 1250.28 93.5802H1221.66C1221.12 97.2081 1220.43 101.931 1219.68 106.654H1307.64C1310.65 106.038 1314.14 105.491 1317.15 105.011C1321.6 107.202 1329.88 108.365 1335.57 108.365C1354.66 108.365 1367.05 95.5653 1367.05 75.8516C1366.98 56.3433 1355.01 43.5431 1336.39 43.1324Z" fill="#27292D"/>
<path d="M1182.17 114.663H1182.99C1202.09 114.663 1210.99 108.365 1210.99 92.8272C1210.99 81.6699 1202.84 72.7713 1189.15 72.7713H1171.56C1166.29 72.7713 1163.14 69.7595 1163.14 64.6942C1163.14 61.2717 1164.44 57.0278 1173.07 57.0278H1211.53C1212.36 52.031 1212.77 48.8822 1213.52 43.8854H1173.54C1154.93 43.8854 1145.55 51.6887 1145.55 64.6942C1145.55 77.5628 1153.69 84.271 1167.38 84.271H1184.98C1190.25 84.271 1193.39 88.4464 1193.39 92.8272C1193.39 95.7021 1192.09 101.657 1183.54 101.657H1180.59L1124.26 101.52H1113.99C1105.3 101.52 1099.21 96.592 1099.21 85.1608V77.2891C1099.21 65.3787 1103.93 57.9861 1113.99 57.9861H1130.69C1131.45 52.9208 1131.93 49.7036 1132.61 44.9121H1111.8H1109.82C1092.77 44.9121 1081 56.3433 1080.59 76.2623V77.0152V85.1608C1081 105.08 1092.77 114.594 1109.82 114.594H1111.8H1126.45L1156.98 114.663H1175.19H1182.17Z" fill="#27292D"/>
<path d="M1611.6 267.457V249.646C1611.6 242.824 1607.43 238.417 1600.37 238.417C1596.81 238.417 1592.94 239.564 1590.29 243.488C1588.24 240.228 1585.22 238.417 1580.81 238.417C1577.85 238.417 1574.89 239.322 1572.54 242.583V239.021H1566.32V267.457H1572.54V251.759C1572.54 246.688 1575.19 244.333 1579.36 244.333C1583.53 244.333 1585.58 246.99 1585.58 251.759V267.457H1591.68V251.759C1591.68 246.688 1594.64 244.333 1598.5 244.333C1602.66 244.333 1604.72 246.99 1604.72 251.759V267.457H1611.6ZM1703.79 238.96H1693.71V230.387H1687.49V238.96H1681.88V244.575H1687.49V257.616C1687.49 264.136 1690.15 268 1697.27 268C1699.93 268 1702.89 267.094 1705 265.947L1703.19 260.574C1701.38 261.721 1699.32 262.083 1697.81 262.083C1694.86 262.083 1693.65 260.272 1693.65 257.374V244.635H1703.73L1703.79 238.96ZM1756.56 238.356C1753 238.356 1750.64 240.168 1749.13 242.522V238.96H1742.91V267.396H1749.13V251.397C1749.13 246.688 1751.18 243.971 1755.05 243.971C1756.2 243.971 1757.71 244.273 1758.91 244.575L1760.72 238.658C1759.52 238.356 1757.77 238.356 1756.56 238.356ZM1676.8 241.315C1673.85 239.262 1669.68 238.356 1665.21 238.356C1658.09 238.356 1653.38 241.918 1653.38 247.533C1653.38 252.242 1656.94 254.959 1663.16 255.804L1666.12 256.106C1669.38 256.71 1671.19 257.616 1671.19 259.065C1671.19 261.117 1668.83 262.627 1664.67 262.627C1660.5 262.627 1657.24 261.117 1655.19 259.668L1652.23 264.378C1655.49 266.732 1659.96 267.94 1664.37 267.94C1672.64 267.94 1677.41 264.076 1677.41 258.763C1677.41 253.691 1673.54 251.035 1667.63 250.19L1664.67 249.888C1662.01 249.586 1659.96 248.982 1659.96 247.231C1659.96 245.179 1662.01 243.971 1665.33 243.971C1668.9 243.971 1672.46 245.481 1674.27 246.326L1676.8 241.315ZM1842.23 238.356C1838.67 238.356 1836.31 240.168 1834.8 242.522V238.96H1828.58V267.396H1834.8V251.397C1834.8 246.688 1836.86 243.971 1840.72 243.971C1841.87 243.971 1843.38 244.273 1844.58 244.575L1846.39 238.719C1845.19 238.356 1843.44 238.356 1842.23 238.356ZM1762.78 253.208C1762.78 261.782 1768.69 268 1777.93 268C1782.1 268 1785.05 267.094 1788.01 264.74L1785.05 259.668C1782.7 261.48 1780.35 262.325 1777.63 262.325C1772.56 262.325 1769.06 258.763 1769.06 253.148C1769.06 247.775 1772.62 244.213 1777.63 243.971C1780.29 243.971 1782.7 244.877 1785.05 246.628L1788.01 241.556C1785.05 239.202 1782.1 238.296 1777.93 238.296C1768.75 238.356 1762.78 244.635 1762.78 253.208ZM1820.31 253.208V238.96H1814.09V242.522C1812.04 239.866 1809.02 238.356 1805.16 238.356C1797.13 238.356 1790.91 244.575 1790.91 253.148C1790.91 261.721 1797.13 267.94 1805.16 267.94C1809.33 267.94 1812.28 266.43 1814.09 263.774V267.336H1820.31V253.208ZM1797.49 253.208C1797.49 248.137 1800.75 244.032 1806.06 244.032C1811.14 244.032 1814.64 247.896 1814.64 253.208C1814.64 258.28 1811.08 262.385 1806.06 262.385C1800.75 262.083 1797.49 258.219 1797.49 253.208ZM1723.05 238.356C1714.78 238.356 1708.8 244.273 1708.8 253.148C1708.8 262.083 1714.72 267.94 1723.35 267.94C1727.52 267.94 1731.62 266.793 1734.94 264.076L1731.99 259.608C1729.63 261.419 1726.61 262.566 1723.71 262.566C1719.85 262.566 1715.99 260.755 1715.14 255.744H1736.15C1736.15 254.838 1736.15 254.235 1736.15 253.39C1736.39 244.333 1731.08 238.356 1723.05 238.356ZM1723.05 243.73C1726.91 243.73 1729.57 246.084 1730.17 250.552H1715.38C1715.99 246.688 1718.64 243.73 1723.05 243.73ZM1877.55 253.208V227.731H1871.33V242.522C1869.28 239.866 1866.26 238.356 1862.39 238.356C1854.36 238.356 1848.15 244.575 1848.15 253.148C1848.15 261.721 1854.36 267.94 1862.39 267.94C1866.56 267.94 1869.52 266.43 1871.33 263.774V267.336H1877.55V253.208ZM1854.67 253.208C1854.67 248.137 1857.93 244.032 1863.24 244.032C1868.31 244.032 1871.81 247.896 1871.81 253.208C1871.81 258.28 1868.25 262.385 1863.24 262.385C1857.93 262.083 1854.67 258.219 1854.67 253.208ZM1646.56 253.208V238.96H1640.34V242.522C1638.29 239.866 1635.27 238.356 1631.4 238.356C1623.37 238.356 1617.15 244.575 1617.15 253.148C1617.15 261.721 1623.37 267.94 1631.4 267.94C1635.57 267.94 1638.53 266.43 1640.34 263.774V267.336H1646.56V253.208ZM1623.49 253.208C1623.49 248.137 1626.75 244.032 1632.07 244.032C1637.14 244.032 1640.64 247.896 1640.64 253.208C1640.64 258.28 1637.08 262.385 1632.07 262.385C1626.69 262.083 1623.49 258.219 1623.49 253.208Z" fill="black"/>
<path d="M1768.15 22.8817H1674.75V190.661H1768.15V22.8817Z" fill="#EB662B"/>
<path d="M1680.97 106.741C1680.97 72.6299 1696.97 42.3825 1721.6 22.8214C1703.49 8.57309 1680.67 0 1655.79 0C1596.81 0 1549.05 47.7558 1549.05 106.741C1549.05 165.727 1596.81 213.482 1655.79 213.482C1680.67 213.482 1703.55 204.909 1721.6 190.661C1696.97 171.341 1680.97 140.852 1680.97 106.741Z" fill="#D72E2B"/>
<path d="M1894.15 106.741C1894.15 165.727 1846.39 213.482 1787.41 213.482C1762.54 213.482 1739.65 204.909 1721.6 190.661C1746.48 171.1 1762.23 140.852 1762.23 106.741C1762.23 72.6299 1746.23 42.3825 1721.6 22.8214C1739.65 8.57309 1762.47 0 1787.41 0C1846.39 0 1894.15 48.0577 1894.15 106.741Z" fill="#E9A140"/>
<path d="M2306.15 39.7976L2226.85 229.198H2175.05L2136.05 78.0977C2133.65 68.7977 2131.65 65.3977 2124.45 61.4977C2112.65 55.0977 2093.25 49.0976 2076.15 45.3976L2077.35 39.7976H2160.65C2171.85 39.7976 2181.35 47.9977 2183.15 59.0977L2203.75 168.698L2254.85 39.8976H2306.15V39.7976ZM2509.05 167.398C2509.25 117.398 2439.95 114.698 2440.45 92.2976C2440.55 85.4976 2447.05 78.2976 2461.25 76.3976C2477.85 74.7976 2494.55 77.6976 2509.55 84.7976L2518.15 44.5977C2503.45 39.0977 2487.95 36.1976 2472.35 36.1976C2423.95 36.1976 2389.85 61.8976 2389.55 98.7976C2389.25 125.998 2413.85 141.298 2432.45 150.298C2451.55 159.598 2457.95 165.498 2457.85 173.798C2457.75 186.498 2442.65 192.098 2428.55 192.298C2403.95 192.698 2389.65 185.598 2378.25 180.298L2369.35 221.798C2380.75 226.998 2401.95 231.598 2423.85 231.798C2475.15 232.198 2508.75 206.698 2509.05 167.398ZM2636.95 229.098H2682.25L2642.75 39.7976H2600.85C2591.65 39.6976 2583.35 45.2976 2579.95 53.7976L2506.45 229.098H2557.85L2568.05 200.798H2630.95L2636.95 229.098ZM2582.25 162.098L2608.05 90.9977L2622.85 162.098H2582.25ZM2376.15 39.7976L2335.65 229.098H2286.65L2327.15 39.7976H2376.15Z" fill="#1C32C2"/>
</svg>
